<svg xmlns="http://www.w3.org/2000/svg" viewBox="0 0 420 96" role="img" aria-labelledby="title desc">
  <title id="title">Qixing High Voltage logo</title>
  <desc id="desc">Qixing High Voltage wordmark with a high-voltage arc and bushing-inspired emblem.</desc>
  <defs>
    <linearGradient id="bolt" x1="18" x2="78" y1="10" y2="86">
      <stop offset="0" stop-color="#16c7d9"/>
      <stop offset="1" stop-color="#1177b8"/>
    </linearGradient>
  </defs>
  <rect width="420" height="96" fill="none"/>
  <g transform="translate(8 8)">
    <circle cx="40" cy="40" r="34" fill="#111a24"/>
    <path d="M54 8c17 7 27 23 25 41-3 22-22 39-45 37" fill="none" stroke="#f6c21a" stroke-width="7" stroke-linecap="round"/>
    <path d="M35 13 18 48h18l-8 28 34-42H42l12-21Z" fill="url(#bolt)"/>
    <path d="M42 21h20v8H49l-4 9h20v8H39l-4 9h22v8H28" fill="none" stroke="#fff" stroke-width="3" stroke-linecap="round" stroke-linejoin="round" opacity=".9"/>
  </g>
  <g transform="translate(98 21)">
    <text x="0" y="30" fill="#111a24" font-family="Arial, Helvetica, sans-serif" font-size="30" font-weight="800">Qixing</text>
    <text x="0" y="58" fill="#1177b8" font-family="Arial, Helvetica, sans-serif" font-size="21" font-weight="700">High Voltage</text>
    <path d="M198 19c34-18 66-20 104-3" fill="none" stroke="#f6c21a" stroke-width="5" stroke-linecap="round"/>
    <path d="M205 48h102" fill="none" stroke="#dce3ea" stroke-width="5" stroke-linecap="round"/>
    <path d="M218 37h76" fill="none" stroke="#1177b8" stroke-width="5" stroke-linecap="round"/>
  </g>
</svg>
