<svg xmlns="http://www.w3.org/2000/svg" viewBox="0 0 1200 900" role="img" aria-label="High voltage transformer bushings on industrial transformer equipment">
  <defs>
    <linearGradient id="sky" x1="0" x2="1" y1="0" y2="1">
      <stop offset="0" stop-color="#dbe7ef"/>
      <stop offset="0.48" stop-color="#eef3f7"/>
      <stop offset="1" stop-color="#b9c8d5"/>
    </linearGradient>
    <linearGradient id="steel" x1="0" x2="1">
      <stop offset="0" stop-color="#607080"/>
      <stop offset="0.5" stop-color="#d6dee5"/>
      <stop offset="1" stop-color="#475768"/>
    </linearGradient>
    <linearGradient id="porcelain" x1="0" x2="1">
      <stop offset="0" stop-color="#d9edf1"/>
      <stop offset="0.38" stop-color="#ffffff"/>
      <stop offset="0.68" stop-color="#c7e0e6"/>
      <stop offset="1" stop-color="#8ca5b0"/>
    </linearGradient>
    <linearGradient id="copper" x1="0" x2="1">
      <stop offset="0" stop-color="#7f3f22"/>
      <stop offset="0.45" stop-color="#d99157"/>
      <stop offset="1" stop-color="#6e341c"/>
    </linearGradient>
    <filter id="shadow" x="-20%" y="-20%" width="140%" height="140%">
      <feDropShadow dx="0" dy="18" stdDeviation="18" flood-color="#16202a" flood-opacity="0.35"/>
    </filter>
  </defs>
  <rect width="1200" height="900" fill="url(#sky)"/>
  <path d="M0 650c180-58 340-56 520-10 213 55 420 72 680-18v278H0z" fill="#d5dee7"/>
  <g opacity="0.26" fill="none" stroke="#476274" stroke-width="5">
    <path d="M780 120v520M930 86v560M1080 130v500"/>
    <path d="M712 210h440M735 335h385M760 465h360"/>
  </g>
  <g filter="url(#shadow)">
    <path d="M428 585h665c45 0 82 37 82 82v161H346V667c0-45 37-82 82-82z" fill="#1d3447"/>
    <path d="M392 642h746v188H392z" fill="#25475f"/>
    <path d="M447 700h156v84H447zM650 700h156v84H650zM852 700h156v84H852z" fill="#152a3a"/>
    <path d="M366 584h798v68H366z" fill="#718393"/>
    <path d="M390 548h750v45H390z" fill="url(#steel)"/>
  </g>
  <g transform="translate(436 105)" filter="url(#shadow)">
    <g transform="rotate(-6 95 255)">
      <rect x="73" y="0" width="44" height="140" rx="18" fill="url(#copper)"/>
      <rect x="56" y="130" width="78" height="44" rx="9" fill="url(#steel)"/>
      <path d="M65 166h60l34 352H31z" fill="url(#porcelain)"/>
      <g fill="#dceff4" stroke="#839ca8" stroke-width="5">
        <ellipse cx="95" cy="206" rx="92" ry="20"/>
        <ellipse cx="95" cy="252" rx="104" ry="22"/>
        <ellipse cx="95" cy="300" rx="112" ry="23"/>
        <ellipse cx="95" cy="350" rx="120" ry="24"/>
        <ellipse cx="95" cy="402" rx="128" ry="25"/>
        <ellipse cx="95" cy="456" rx="136" ry="27"/>
      </g>
      <rect x="34" y="506" width="122" height="48" rx="12" fill="url(#steel)"/>
      <rect x="5" y="542" width="180" height="56" rx="12" fill="#6e7e8e"/>
    </g>
  </g>
  <g transform="translate(720 64)" filter="url(#shadow)">
    <rect x="81" y="0" width="52" height="142" rx="18" fill="url(#copper)"/>
    <rect x="62" y="128" width="90" height="52" rx="10" fill="url(#steel)"/>
    <path d="M72 170h70l45 405H27z" fill="url(#porcelain)"/>
    <g fill="#eaf7fa" stroke="#869ea9" stroke-width="6">
      <ellipse cx="107" cy="215" rx="112" ry="24"/>
      <ellipse cx="107" cy="270" rx="126" ry="27"/>
      <ellipse cx="107" cy="328" rx="138" ry="29"/>
      <ellipse cx="107" cy="389" rx="150" ry="31"/>
      <ellipse cx="107" cy="452" rx="162" ry="33"/>
      <ellipse cx="107" cy="518" rx="174" ry="35"/>
    </g>
    <rect x="38" y="560" width="138" height="58" rx="14" fill="url(#steel)"/>
    <rect x="0" y="604" width="214" height="66" rx="14" fill="#6d7f8e"/>
  </g>
  <g transform="translate(1000 130)" opacity="0.78">
    <rect x="48" y="0" width="36" height="96" rx="14" fill="url(#copper)"/>
    <path d="M40 92h52l28 286H12z" fill="url(#porcelain)"/>
    <g fill="#eaf7fa" stroke="#93a8b3" stroke-width="5">
      <ellipse cx="66" cy="132" rx="72" ry="16"/>
      <ellipse cx="66" cy="184" rx="82" ry="18"/>
      <ellipse cx="66" cy="238" rx="92" ry="19"/>
      <ellipse cx="66" cy="294" rx="102" ry="21"/>
    </g>
    <rect x="8" y="360" width="116" height="44" rx="10" fill="#788999"/>
  </g>
</svg>
